<svg xmlns="http://www.w3.org/2000/svg" viewBox="0 0 175.45 175.45"><defs><style>.cls-1{fill:#b58b6d;}.cls-2{fill:#fff;}</style></defs><g id="レイヤー_2" data-name="レイヤー 2"><g id="レイヤー_1-2" data-name="レイヤー 1"><circle class="cls-1" cx="87.73" cy="87.73" r="87.73"/><path class="cls-2" d="M92.81,79.49c0,4.69.13,5.28,1.58,6.07s3.3,1,8.12,1.06v2.84H75.38V86.62c9.44-.07,10.36-.66,10.36-6.93V56.2c0-3-.26-4.16-1-4.56-1.72-.79-3.83-1-9-1V48a73.72,73.72,0,0,0,17.16-5.28Z"/><path class="cls-2" d="M57.28,127a1.76,1.76,0,0,1-1.72-1.79,1.58,1.58,0,0,1,1.37-1.57,29.69,29.69,0,0,0,11.3-5.57,14.76,14.76,0,0,0-2.9-1.64,1.32,1.32,0,0,1-1-1.16,1.82,1.82,0,0,1,1.89-1.57,10.45,10.45,0,0,1,4.55,2.2c3-2.76,5.11-5.67,5.11-6.12s0-.46-2.38-.46c-1.57,0-3.5.07-5.07.11-2.31,2.48-8.65,8.4-10.78,8.4a1.76,1.76,0,0,1-1.82-1.68,1.55,1.55,0,0,1,1-1.4,34.12,34.12,0,0,0,11.3-10.29,1.68,1.68,0,0,1,1.4-.81,1.94,1.94,0,0,1,1.93,1.72c0,.28-.11.56-.67,1.29,2.07,0,4.31-.1,5.78-.1,1.92,0,3.25,1.08,3.25,2.55a3.82,3.82,0,0,1-.73,2.07,41.67,41.67,0,0,1-8.79,9.06c1.12,0,2.35,0,3.57,0,2,0,4,0,5.85.07a3.6,3.6,0,0,1,3.64,3.11c.07,1,.07,2.1.07,3.19s0,2.17-.07,3.25a3.75,3.75,0,0,1-3.82,3.5c-1.68.07-3.46.11-5.18.11-2,0-3.88,0-5.53-.11-2.48-.1-3.78-1.5-3.88-3.46,0-.84-.07-1.79-.07-2.77,0-1.15,0-2.34.07-3.29C62.39,125.3,58.43,127,57.28,127Zm22.82-.21c0-.81,0-1.61,0-2.31s-.49-1.33-1.61-1.37c-1.36,0-2.9-.07-4.41-.07s-3,0-4.23.07a1.53,1.53,0,0,0-1.61,1.4c0,.56,0,1.19,0,1.86,0,.87,0,1.82,0,2.62,0,1.47.59,1.47,5.88,1.47,1.5,0,3,0,4.44-.07.88,0,1.51-.42,1.54-1.4C80.1,128.35,80.1,127.58,80.1,126.81Z"/><path class="cls-2" d="M119.47,118.83l-7.42-.07a19.31,19.31,0,0,0,1.89,4.2,18.78,18.78,0,0,0,3.4-2.7,1.4,1.4,0,0,1,1-.45,1.81,1.81,0,0,1,1.71,1.68c0,1.15-2.13,2.45-4.55,3.67a17.1,17.1,0,0,0,4.69,4.13,1.53,1.53,0,0,1,.84,1.37,1.76,1.76,0,0,1-1.75,1.71c-1.71,0-5.32-3.92-7.52-8.5l0,1,.25,5v.21c0,1.86-1.09,4.17-5,4.17-2.35,0-3.61-.42-3.61-1.79a1.48,1.48,0,0,1,1.44-1.57,1.09,1.09,0,0,1,.31,0,9.74,9.74,0,0,0,1.89.25c1.09,0,1.82-.42,1.82-2l0-10.36-6.34.07a1.67,1.67,0,0,1-.73-.14,1.49,1.49,0,0,1-1.37,2.13,1.29,1.29,0,0,1-1-.56c-.39-.52-.91-1.15-1.4-1.68,0,5.46.17,14.25.17,14.25v0a1.74,1.74,0,0,1-3.43,0v0l.14-12.64a32,32,0,0,1-3,4.41,1.82,1.82,0,0,1-1.44.74,1.69,1.69,0,0,1-1.68-1.58,1.72,1.72,0,0,1,.56-1.22,30.69,30.69,0,0,0,5.53-8.37v-.8l-3.39.07h-.07A1.41,1.41,0,0,1,89.9,112a1.58,1.58,0,0,1,1.61-1.61h3.36l-.11-5.78v0A1.58,1.58,0,0,1,96.51,103a1.54,1.54,0,0,1,1.68,1.51v0s-.07,2.66-.1,5.78h2.38a1.54,1.54,0,0,1,0,3.08h0l-2.42,0c0,.84,0,1.68,0,2.45a.94.94,0,0,1,.42.11,13.56,13.56,0,0,1,2.76,2,1.42,1.42,0,0,1,1.33-1.71h6.34l0-1.89h-4.76a1.25,1.25,0,0,1-1.4-1.19,1.32,1.32,0,0,1,1.4-1.33h4.76v-1.72h-5.74c-1,0-1.43-.59-1.43-1.22a1.33,1.33,0,0,1,1.43-1.33H106a7.4,7.4,0,0,0-1.68-1.89,1.15,1.15,0,0,1-.49-.91,1.55,1.55,0,0,1,1.61-1.37c1.09,0,3.5,2.38,3.5,3.47a1.68,1.68,0,0,1-.17.7h2.45a24.33,24.33,0,0,0,1.85-3.5,1.36,1.36,0,0,1,1.3-.88,1.8,1.8,0,0,1,1.82,1.54c0,.35-.11.74-1.58,2.84h3.92a1.28,1.28,0,1,1,0,2.55h-6.82l0,1.72h5.29a1.26,1.26,0,1,1,0,2.52h-5.29l0,1.89h7.66a1.24,1.24,0,0,1,1.3,1.29,1.22,1.22,0,0,1-1.26,1.3Zm-18.3,12.28a1.64,1.64,0,0,1-1.61-1.71,1.42,1.42,0,0,1,1-1.4,21,21,0,0,0,5.92-3.08,1.33,1.33,0,0,1,.77-.28,1.37,1.37,0,0,1,1.33,1.4,1.73,1.73,0,0,1-.7,1.29C106.1,128.8,102.25,131.11,101.17,131.11Zm3.74-6.89a7.84,7.84,0,0,0-2.76-1.72,1,1,0,0,1-.67-1,1.59,1.59,0,0,1,1.51-1.47c.56,0,4.34,1.19,4.34,2.94a1.68,1.68,0,0,1-1.47,1.68A1.36,1.36,0,0,1,104.91,124.22Z"/></g></g></svg>