<svg xmlns="http://www.w3.org/2000/svg" viewBox="0 0 126.2 126.2"><defs><style>.cls-1{fill:#b58b6d;}.cls-2{fill:#fff;}</style></defs><g id="レイヤー_2" data-name="レイヤー 2"><g id="レイヤー_1-2" data-name="レイヤー 1"><circle class="cls-1" cx="63.1" cy="63.1" r="63.1"/><path class="cls-2" d="M29.35,42.56a12,12,0,0,1-2.55,1,1.22,1.22,0,0,1-1.24-1.25,1.16,1.16,0,0,1,.8-1.12c1.1-.41,2.06-.78,3-1.19V35.77H27a1.15,1.15,0,1,1,0-2.29h2.36l0-4.16a1.19,1.19,0,0,1,1.25-1.22,1.16,1.16,0,0,1,1.22,1.22v4.16h1.79a1.15,1.15,0,1,1,0,2.29H31.8v3C33,38.08,33.2,38,33.43,38a1.09,1.09,0,0,1,1,1.11c0,.71-.39.94-2.7,2.19v3c0,.42.08,2.79.1,3.7v.1c0,1.64-1.06,2.91-3.32,2.91-1.38,0-2.34-.23-2.34-1.4a1.09,1.09,0,0,1,1-1.2.66.66,0,0,1,.24,0,4.1,4.1,0,0,0,.83.1c.54,0,1.06-.18,1.06-.86ZM39.88,29.27a1.26,1.26,0,0,1,2.5,0v4.86c.86,0,1.72,0,2.49,0a2.69,2.69,0,0,1,2.76,2.58c0,1.32.08,3.38.08,5.43s0,4.14-.08,5.54a2.85,2.85,0,0,1-2.76,2.76c-1,0-2.23.08-3.43.08-1.37,0-2.73,0-3.82-.08a2.61,2.61,0,0,1-2.7-2.73c-.05-1.3-.08-3.15-.08-5,0-2.16,0-4.39.08-5.9a2.59,2.59,0,0,1,2.73-2.63c.67,0,1.43,0,2.23,0Zm.08,7c-.62,0-1.2,0-1.66,0a1.06,1.06,0,0,0-1.12,1.12c0,.88-.08,2.13-.08,3.48H40Zm0,6.76H37.1c0,1.59,0,3.1.08,4.16s.91,1.15,2.78,1.15Zm5.36-2.13c0-1.38,0-2.65,0-3.51,0-1.12-.54-1.15-3-1.15v4.66Zm-3,2.13v5.31c2.29,0,2.94,0,3-1.17s0-2.55,0-4.14Z"/><path class="cls-2" d="M52.7,50.88a1.44,1.44,0,0,1-1.38-1.35,1.13,1.13,0,0,1,.63-1,12.41,12.41,0,0,0,3.32-2.73c0-1.4.11-2.62.11-3.79,0-.91,0-1.2-1.09-1.2-.42,0-.76,0-1.15,0a1.07,1.07,0,0,1-1.25-1.12,1.09,1.09,0,0,1,1-1.17h1.59c1.85,0,3.28.21,3.28,2.44,0,1.51-.11,3.28-.11,4.94a5.91,5.91,0,0,0,1.17,1.1,1.12,1.12,0,0,1-.18-.63.84.84,0,0,1,.83-.86,8.14,8.14,0,0,0,3.93-1.48.76.76,0,0,1,.49-.18A1,1,0,0,1,64.84,45a.84.84,0,0,1-.39.75A11.61,11.61,0,0,1,60,47.55h-.32c1,.52,2.45,1,6.09,1,2.7,0,5.64-.29,7.62-.44h.13a1.21,1.21,0,0,1,1.24,1.25,1.29,1.29,0,0,1-1.3,1.29c-1.63.16-4.08.32-6.55.32-6.55,0-8.58-1.17-10.45-3.2C55.69,48.64,53.71,50.88,52.7,50.88Zm3-17a7.87,7.87,0,0,0-2.55-2.27.88.88,0,0,1-.52-.8A1.33,1.33,0,0,1,54,29.61c.78,0,4,2,4,3.33a1.51,1.51,0,0,1-1.4,1.45A1,1,0,0,1,55.72,33.85Zm10.16,9.72-6.91,0a.91.91,0,0,1-1-.91.89.89,0,0,1,1-.91l3.45,0V40.24l-2.49,0a.9.9,0,1,1,0-1.8l2.49,0v-.73A.79.79,0,0,1,63,37a8.24,8.24,0,0,1-.86,0c-2.57,0-3.56-.34-3.56-2.81,0-.83,0-2.16,2.05-2.16h1.51c.76,0,1,0,1-.59,0-.37-.05-.47-.42-.5H59.36a.85.85,0,0,1-.91-.91.92.92,0,0,1,.88-1h.88c1.23,0,2.63,0,3,0,1.37,0,1.9.57,1.9,2.41,0,2.21-.6,2.21-4.06,2.21-.42,0-.47.19-.47.86s.21.68,1.53.68c.89,0,1.57,0,1.62-.86a.88.88,0,0,1,1-.83,1,1,0,0,1,1.14,1,2.24,2.24,0,0,1-2.1,2.34c.44.08.85.34.85.83v.73l1.25,0h1.2v-.76a.89.89,0,0,1,.88-.83,2,2,0,0,1-1.76-2.37c0-1.17,0-2.47,2-2.47h1.59c.94,0,1,0,1-.59,0-.37,0-.47-.41-.5H66.9a.85.85,0,0,1-.89-.88.94.94,0,0,1,.89-1h.88c1.28,0,2.76,0,3.17,0,1.51,0,1.93.7,1.93,2.41,0,2.16-.5,2.21-4.19,2.21-.49,0-.49.24-.49.84s.1.7,1.63.7c1.31,0,1.9,0,2-1a.88.88,0,0,1,1-.83,1.08,1.08,0,0,1,1.17,1c0,2.39-2.26,2.6-4.06,2.6-.39,0-.75,0-1.12-.06a.78.78,0,0,1,.55.73v.73l2.7,0a.9.9,0,1,1,0,1.8l-2.7,0v1.59l3.79,0a.89.89,0,0,1,1,.91.9.9,0,0,1-1,.91Zm1.2-3.33-1.2,0-1.25,0v1.59l1.28,0,1.17,0Zm-.16,5.41a.81.81,0,0,1-.46-.75,1.07,1.07,0,0,1,1-1A1.12,1.12,0,0,1,68,44a11.82,11.82,0,0,0,4.5,1.4.94.94,0,0,1,.94,1,1.16,1.16,0,0,1-1.17,1.17A14.66,14.66,0,0,1,66.92,45.65Z"/><path class="cls-2" d="M94.38,49.71h-.26c-5.64-.52-9.21-4.42-9.21-8.43a7.31,7.31,0,0,1,1.88-4.75.57.57,0,0,0,.13-.24.05.05,0,0,0,0,0,.92.92,0,0,0-.27.1c-4.08,2.11-4.57,2.27-5.14,2.27a1.39,1.39,0,1,1-.39-2.76c.54-.18,2-.63,2.8-.91,1.23-.44,3.38-1.12,6-2.13a19.69,19.69,0,0,1,6.89-1.62c1.3,0,1.77.6,1.77,1.28,0,1.32-1.09,1.61-2.08,1.61a4.23,4.23,0,0,1-.6,0c-.21,0-.42,0-.62,0-4,0-8,3.43-8,6.91,0,3.13,3,5.78,7,5.78,1.3,0,1.92.75,1.92,1.53S95.58,49.71,94.38,49.71Zm2.24-9.13A9.87,9.87,0,0,0,94.41,39a.89.89,0,0,1-.66-.81,1.1,1.1,0,0,1,1.15-1c.34,0,3.51,1.19,3.51,2.55a1.24,1.24,0,0,1-1.12,1.22A.86.86,0,0,1,96.62,40.58Zm3-2.16a9.42,9.42,0,0,0-2.27-1.53.9.9,0,0,1-.67-.81,1.12,1.12,0,0,1,1.14-1c.42,0,3.54,1.12,3.54,2.47a1.2,1.2,0,0,1-1.09,1.22A.92.92,0,0,1,99.61,38.42Z"/><path class="cls-2" d="M29.34,68.38a3.53,3.53,0,0,1,.05.65c0,1.88-1.2,3.35-2.71,3.35a3,3,0,0,1-2.86-3.13c0-3.45,4.6-6.34,9.94-6.34,5.61,0,9.75,3.17,9.75,7.59,0,4-3.31,7-8.28,7.82a12.29,12.29,0,0,1,4.69,1.15,8.23,8.23,0,0,1,4.56,7.22c0,5.43-4.74,9.16-11.69,9.16-5.93,0-10.12-2.63-10.12-6.45a3,3,0,0,1,2.9-3.12,3.12,3.12,0,0,1,3,3.08c0,.18,0,.46-.09.87l0,.74c0,1.89,1.52,2.94,4.24,2.94,3.86,0,6.3-2.76,6.3-7.31,0-4.37-2.44-7.18-6.07-7.18-.56,0-1.15,0-1.8.09a5.93,5.93,0,0,1-.92,0,1.09,1.09,0,0,1-1.24-1.15,1.11,1.11,0,0,1,1.24-1.2c.28,0,.28,0,1.24.05a4.2,4.2,0,0,0,.79,0c3.63,0,6-2.58,6-6.68,0-3.72-1.89-5.79-5.11-5.79-2.25,0-3.77,1.15-3.77,2.8Z"/><path class="cls-2" d="M56.66,93.38a1.3,1.3,0,0,1-1.28-1.32,1.17,1.17,0,0,1,1-1.17,22.14,22.14,0,0,0,8.39-4.14,10.92,10.92,0,0,0-2.15-1.22,1,1,0,0,1-.71-.86,1.36,1.36,0,0,1,1.41-1.17,7.74,7.74,0,0,1,3.38,1.64c2.21-2,3.79-4.21,3.79-4.55s0-.34-1.76-.34c-1.17,0-2.6,0-3.77.08-1.72,1.85-6.43,6.24-8,6.24a1.31,1.31,0,0,1-1.35-1.25,1.15,1.15,0,0,1,.72-1,25.27,25.27,0,0,0,8.4-7.64,1.23,1.23,0,0,1,1-.6,1.44,1.44,0,0,1,1.43,1.27c0,.21-.08.42-.49,1,1.53,0,3.2-.08,4.29-.08,1.43,0,2.42.8,2.42,1.9a2.81,2.81,0,0,1-.55,1.53,31,31,0,0,1-6.53,6.73c.84,0,1.75,0,2.66,0,1.48,0,3,0,4.34,0a2.67,2.67,0,0,1,2.7,2.31c.06.76.06,1.56.06,2.37s0,1.61-.06,2.42a2.78,2.78,0,0,1-2.83,2.6c-1.25,0-2.57.08-3.85.08-1.46,0-2.88,0-4.11-.08a2.67,2.67,0,0,1-2.88-2.58c0-.62-.05-1.32-.05-2.05s0-1.74.05-2.44C60.45,92.11,57.51,93.38,56.66,93.38Zm17-.15c0-.6,0-1.2,0-1.72s-.36-1-1.19-1c-1,0-2.16-.06-3.28-.06s-2.21,0-3.15.06a1.12,1.12,0,0,0-1.19,1c0,.41,0,.88,0,1.37,0,.65,0,1.36,0,2,0,1.1.44,1.1,4.37,1.1,1.11,0,2.26,0,3.3-.06.65,0,1.12-.31,1.14-1C73.61,94.37,73.61,93.8,73.61,93.23Z"/><path class="cls-2" d="M102.86,87.3l-5.51,0a13.62,13.62,0,0,0,1.4,3.12,13.8,13.8,0,0,0,2.52-2A1.07,1.07,0,0,1,102,88a1.35,1.35,0,0,1,1.28,1.24c0,.86-1.59,1.82-3.38,2.73a12.44,12.44,0,0,0,3.48,3.07,1.15,1.15,0,0,1,.62,1,1.31,1.31,0,0,1-1.3,1.27c-1.27,0-4-2.91-5.59-6.32l0,.73.18,3.72v.15c0,1.38-.81,3.1-3.69,3.1-1.74,0-2.68-.31-2.68-1.33A1.09,1.09,0,0,1,92,96.24a.63.63,0,0,1,.23,0,7.56,7.56,0,0,0,1.41.18c.8,0,1.35-.31,1.35-1.51l0-7.69-4.71,0a1.16,1.16,0,0,1-.54-.11,1.29,1.29,0,0,1,.1.42,1.19,1.19,0,0,1-1.12,1.17,1,1,0,0,1-.75-.42c-.29-.39-.68-.85-1-1.25,0,4.06.13,10.59.13,10.59v0a1.29,1.29,0,0,1-2.55,0v0l.11-9.39a24,24,0,0,1-2.21,3.28,1.37,1.37,0,0,1-1.07.54A1.25,1.25,0,0,1,80.08,91a1.28,1.28,0,0,1,.42-.91,23.15,23.15,0,0,0,4.11-6.21v-.6l-2.53.05h0a1,1,0,0,1-1.14-1.09A1.16,1.16,0,0,1,82.08,81h2.5l-.08-4.3v0a1.18,1.18,0,0,1,1.3-1.12,1.14,1.14,0,0,1,1.25,1.12v0s0,2-.08,4.3h1.77a1.14,1.14,0,0,1,0,2.28h0l-1.79,0c0,.62,0,1.25,0,1.82a.6.6,0,0,1,.31.08,9.56,9.56,0,0,1,2.06,1.48.77.77,0,0,1,0-.26,1,1,0,0,1,1-1H95L95,84H91.42a.92.92,0,0,1-1-.88,1,1,0,0,1,1-1H95V80.82H90.69c-.73,0-1.07-.44-1.07-.91a1,1,0,0,1,1.07-1h2.18a5.62,5.62,0,0,0-1.24-1.41.86.86,0,0,1-.37-.67,1.15,1.15,0,0,1,1.2-1c.8,0,2.6,1.77,2.6,2.57a1.19,1.19,0,0,1-.13.53h1.82a17.91,17.91,0,0,0,1.38-2.61,1,1,0,0,1,1-.64,1.32,1.32,0,0,1,1.35,1.14c0,.26-.08.54-1.17,2.11h2.91a.95.95,0,1,1,0,1.89H97.11l0,1.28h3.93a.94.94,0,1,1,0,1.87H97.14l0,1.4h5.7a.93.93,0,0,1,1,1,.9.9,0,0,1-.93,1Zm-13.6,9.12a1.23,1.23,0,0,1-1.2-1.27,1.07,1.07,0,0,1,.76-1,15.19,15.19,0,0,0,4.39-2.29,1,1,0,0,1,.58-.21,1,1,0,0,1,1,1,1.28,1.28,0,0,1-.52,1C92.93,94.71,90.07,96.42,89.26,96.42ZM92,91.3A5.71,5.71,0,0,0,90,90a.76.76,0,0,1-.49-.73,1.17,1.17,0,0,1,1.11-1.09c.42,0,3.23.88,3.23,2.18a1.24,1.24,0,0,1-1.09,1.25A1,1,0,0,1,92,91.3Z"/></g></g></svg>