<?xml version="1.0" encoding="UTF-8"?><svg id="_レイヤー_2" xmlns="http://www.w3.org/2000/svg" viewBox="0 0 500.35 292.18"><defs><style>.cls-1{letter-spacing:.1em;}.cls-2{opacity:.52;}.cls-3{font-family:Voltage, Voltage;font-size:195.29px;stroke:#fff;stroke-miterlimit:10;}.cls-3,.cls-4,.cls-5{fill:#7bccd4;}.cls-6{letter-spacing:.35em;}.cls-4{font-size:65.44px;}.cls-4,.cls-7{font-family:Voltage-Light, Voltage;font-weight:300;}.cls-8,.cls-9{fill:#fff;}.cls-8,.cls-5{stroke-width:0px;}.cls-9{font-family:TsukuBRdGothicStd-B-90ms-RKSJ-H, 'FOT-TsukuBRdGothic Std';font-size:25.97px;}.cls-7{fill:#7bbbc3;font-size:41.55px;}</style></defs><g id="_レイヤー_1-2"><g class="cls-2"><path class="cls-8" d="M215.45,43.29c-.56-2.76-.94-5.6-1.3-8.35-.59-4.47-1.21-9.09-2.63-13.44l.95-.31c1.45,4.43,2.07,9.1,2.67,13.62.36,2.73.74,5.55,1.29,8.28l-.98.2Z"/><path class="cls-8" d="M161.25,269.44c-3.2-.29-6.36-1.04-9.42-1.75-1.43-.34-2.87-.67-4.31-.96-3.28-.67-6.67-1.13-9.96-1.57-1.46-.2-2.93-.4-4.39-.61-29.2-4.33-61.15-9.64-100.55-16.72l.18-.98c39.39,7.08,71.33,12.39,100.52,16.71,1.45.22,2.91.41,4.37.61,3.3.45,6.71.91,10.02,1.58,1.45.29,2.92.64,4.33.97,3.02.71,6.15,1.44,9.28,1.73l-.09,1Z"/><path class="cls-8" d="M410.81,240.1l-.34-.94c18.59-6.77,35.35-12.9,52.23-19.42l.36.93c-16.89,6.52-33.65,12.65-52.25,19.42Z"/><rect class="cls-8" x="474.66" y="210.44" width="26.34" height="1" transform="translate(-42.93 183.26) rotate(-20.4)"/><path class="cls-8" d="M341.75,247.81l-.49-.87c23.12-13.07,46.3-26.87,68.72-40.21l11.06-6.58.51.86-11.05,6.58c-22.42,13.34-45.61,27.14-68.74,40.22Z"/><path class="cls-8" d="M434.3,193.54l-.51-.86c19.42-11.63,39.44-23.36,64.89-38.06l.5.87c-25.45,14.69-45.46,26.42-64.88,38.05Z"/><path class="cls-8" d="M332.95,233.46l-.65-.76c15.01-12.73,30.01-25.48,45-38.24l.65.76c-14.99,12.76-29.99,25.51-45,38.24Z"/><rect class="cls-8" x="383.99" y="168.87" width="47.06" height="1" transform="translate(-12.58 304.56) rotate(-40.41)"/><path class="cls-8" d="M436.93,144.99l-.67-.74c7.58-6.85,15.74-14.13,24.78-21.08l.61.79c-9.02,6.94-17.16,14.19-24.72,21.03Z"/><path class="cls-8" d="M321.82,220.8l-.84-.54c1.71-2.68,3.7-5.04,5.63-7.32,1.19-1.4,2.31-2.73,3.31-4.07,14.53-16.15,27.79-32.54,40.61-48.38l3.82-4.73.78.63-3.82,4.73c-12.83,15.86-26.09,32.25-40.61,48.39-.99,1.33-2.12,2.66-3.32,4.08-1.91,2.26-3.88,4.6-5.55,7.21Z"/><rect class="cls-8" x="370.04" y="114.06" width="78.11" height="1" transform="translate(60.01 356.68) rotate(-50.39)"/><path class="cls-8" d="M308.6,210.37l-.88-.48c15.3-27.96,31.42-55.95,47-83.01,10.54-18.3,21.44-37.22,31.85-55.74l.87.49c-10.41,18.52-21.31,37.44-31.85,55.74-15.59,27.06-31.7,55.04-46.99,82.99Z"/><path class="cls-8" d="M394.66,58.95l-.88-.48c3.16-5.8,6.66-11.97,10.42-18.33l.86.51c-3.75,6.35-7.25,12.5-10.4,18.3Z"/><path class="cls-8" d="M293.8,202.33l-.95-.3c3.73-11.74,8.74-25.48,14.88-40.84.78-2.34,1.57-4.74,2.36-7.18,2.79-8.54,5.68-17.37,9.09-25.89l.93.37c-3.39,8.49-6.28,17.31-9.07,25.83-.8,2.44-1.59,4.85-2.38,7.21-6.14,15.36-11.14,29.07-14.87,40.79Z"/><path class="cls-8" d="M327.16,108.7l-.94-.35c4.14-11.17,8.13-22.66,11.98-33.77,4.47-12.86,9.09-26.16,13.92-38.95l.94.35c-4.83,12.77-9.45,26.06-13.92,38.92-3.86,11.12-7.85,22.61-11.99,33.79Z"/><path class="cls-8" d="M277.82,197.02l-.98-.19c4.16-21.63,7.66-43.61,11.05-64.86,3.02-18.93,6.14-38.5,9.73-57.86l.98.18c-3.58,19.36-6.7,38.92-9.72,57.84-3.39,21.26-6.9,43.24-11.06,64.89Z"/><path class="cls-8" d="M301.45,57.46l-1-.09c.55-6.27,1.79-12.27,3-18.07,1.11-5.33,2.25-10.83,2.86-16.57l.99.11c-.61,5.79-1.77,11.32-2.88,16.67-1.2,5.77-2.44,11.74-2.98,17.95Z"/><path class="cls-8" d="M260.17,194.54c-.12-13.59-.19-27.48-.25-40.91-.08-16.63-.16-33.83-.34-50.33h1c.18,16.49.26,33.69.34,50.32.06,13.43.13,27.31.25,40.9h-1Z"/><path class="cls-8" d="M259.42,79.57c-.31-20.33-.38-41.34-.45-61.65-.02-5.96-.04-11.93-.07-17.91h1c.03,5.98.05,11.95.07,17.91.07,20.31.14,41.32.45,61.64l-1,.02Z"/><path class="cls-8" d="M243.35,195.15c-7.06-41.81-15.08-85.64-23.82-130.28l.98-.19c8.74,44.65,16.76,88.49,23.82,130.31l-.99.17Z"/><path class="cls-8" d="M226.9,198.7c-3.26-8.74-6.43-17.57-9.5-26.11-5.75-15.99-11.69-32.53-18.26-48.59l.93-.38c6.58,16.08,12.52,32.62,18.28,48.63,3.07,8.54,6.24,17.37,9.5,26.1l-.94.35Z"/><path class="cls-8" d="M194.2,110.71c-2.46-6.87-4.95-13.7-7.59-20.92-3.48-9.52-7.08-19.37-10.66-29.52-1.5-2.98-2.52-6.01-3.51-8.94-1.06-3.13-2.06-6.08-3.58-8.82l.88-.48c1.56,2.81,2.57,5.81,3.65,8.98.98,2.89,2,5.89,3.49,8.87,3.6,10.2,7.2,20.05,10.68,29.57,2.64,7.22,5.13,14.05,7.59,20.92l-.94.34Z"/><path class="cls-8" d="M211.31,205.03c-11.07-19.56-22.77-39.27-34.07-58.32-5.64-9.5-11.46-19.32-17.1-28.94l.86-.51c5.64,9.61,11.46,19.44,17.1,28.93,11.31,19.06,23,38.77,34.08,58.34l-.87.49Z"/><path class="cls-8" d="M152.26,104.34c-3.64-5.89-6.71-11.58-9.96-17.61-1.53-2.83-3.09-5.73-4.75-8.73-3.21-4.28-5.67-8.7-8.05-12.98-2.22-4-4.52-8.14-7.51-12.31l.81-.58c3.02,4.22,5.33,8.38,7.57,12.41,2.47,4.44,4.8,8.64,8.01,12.92,1.71,3.06,3.27,5.96,4.8,8.79,3.24,6.01,6.3,11.69,9.93,17.56l-.85.53Z"/><path class="cls-8" d="M197.06,213.98c-15.08-18.13-27.9-33.51-41.47-49.62-2.82-3.26-5.6-6.47-8.35-9.65-8.53-9.87-16.59-19.19-25.21-28.92l.75-.66c8.63,9.74,16.69,19.06,25.22,28.93,2.75,3.18,5.52,6.39,8.35,9.65,13.57,16.12,26.4,31.5,41.48,49.63l-.77.64Z"/><path class="cls-8" d="M111.29,113.16c-2.67-3.66-5.63-6.88-8.49-10-2.77-3.01-5.63-6.13-8.2-9.62l.8-.59c2.54,3.45,5.38,6.54,8.13,9.53,2.88,3.13,5.85,6.37,8.56,10.08l-.81.59Z"/><path class="cls-8" d="M184.56,225.25c-9.38-8.5-19.46-16.5-29.22-24.24-9.28-7.36-18.89-14.97-27.88-23.02l.67-.75c8.97,8.03,18.56,15.63,27.84,22.98,9.77,7.75,19.87,15.75,29.27,24.28l-.67.74Z"/><path class="cls-8" d="M117.72,169.94c-8.58-7.73-17.73-14.83-26.57-21.69-8.6-6.68-17.49-13.58-25.79-21.01-3.14-3.14-6.62-6-9.98-8.75-2.3-1.89-4.69-3.85-6.88-5.83l.67-.74c2.18,1.97,4.55,3.92,6.85,5.8,3.38,2.77,6.87,5.64,10.03,8.8,8.26,7.39,17.14,14.28,25.72,20.95,8.86,6.88,18.02,13.99,26.62,21.74l-.67.74Z"/><path class="cls-8" d="M174.24,238.55c-4.95-2.85-9.91-5.72-14.87-8.58-26.49-15.3-53.89-31.12-81.55-46.22l.48-.88c27.67,15.11,55.07,30.93,81.57,46.23,4.96,2.86,9.92,5.73,14.87,8.58l-.5.87Z"/><path class="cls-8" d="M53.91,170.15c-6.57-3.25-12.55-6.84-18.33-10.31-1.18-.71-2.35-1.41-3.52-2.11l.51-.86c1.17.69,2.34,1.4,3.52,2.11,5.76,3.46,11.72,7.04,18.26,10.27l-.44.9Z"/><path class="cls-8" d="M166.4,253.43c-13.15-4.13-26.24-9.02-38.89-13.74-10.3-3.84-20.95-7.82-31.52-11.34l.32-.95c10.59,3.53,21.24,7.51,31.55,11.36,12.65,4.72,25.72,9.6,38.84,13.73l-.3.95Z"/><path class="cls-8" d="M76.21,221.3l-11.46-4.01c-21.44-7.49-43.62-15.23-64.74-23.15l.35-.94c21.12,7.91,43.28,15.65,64.72,23.14l11.46,4-.33.94Z"/></g><text class="cls-3" transform="translate(204.73 177.3) rotate(-2.02)"><tspan x="0" y="0">3</tspan></text><text class="cls-4" transform="translate(289.51 175.11)"><tspan x="0" y="0">rd</tspan></text><text class="cls-7" transform="translate(162.84 208.31)"><tspan x="0" y="0">anniversary</tspan></text><path class="cls-5" d="M489.48,282.35H10.87l-3-3v-38.97l3-3h478.61c1.17,1.17,1.83,1.83,3,3v38.97c-1.17,1.17-1.83,1.83-3,3Z"/><text class="cls-9" transform="translate(35.93 270.05)"><tspan class="cls-1" x="0" y="0">ピクティ</tspan><tspan class="cls-6" x="114.27" y="0">ア3</tspan><tspan class="cls-1" x="174" y="0">周年スペシャル企画</tspan></text></g></svg>