<svg xmlns="http://www.w3.org/2000/svg" viewBox="0 0 126.2 126.2"><defs><style>.cls-1{fill:#b58b6d;}.cls-2{fill:#fff;}</style></defs><g id="レイヤー_2" data-name="レイヤー 2"><g id="レイヤー_1-2" data-name="レイヤー 1"><circle class="cls-1" cx="63.1" cy="63.1" r="63.1"/><path class="cls-2" d="M52,49.7c.67-5.94,1.07-11.42,1.4-20.38H74.08L72.9,35.2H55.54c-.17,3.36-.39,5.82-.9,11.76A12.22,12.22,0,0,1,63.83,43,11.92,11.92,0,0,1,76.15,55.25c0,7.67-6.05,13.27-14.51,13.27-6.49,0-11.42-3.36-11.42-7.9a3.63,3.63,0,0,1,3.53-3.7c1.9,0,3.47,1.74,3.47,4.09a6,6,0,0,1-.17,1.24,2.4,2.4,0,0,0,0,.5c0,2.07,2,3.42,4.7,3.42,5,0,7.67-3.59,7.67-10.31,0-6.21-2.52-9.63-7.05-9.63-3.42,0-5.55,1.12-8.46,4.31Z"/><path class="cls-2" d="M40.48,94.9a1.29,1.29,0,0,1-1.27-1.32,1.17,1.17,0,0,1,1-1.17,22.19,22.19,0,0,0,8.4-4.14,10.72,10.72,0,0,0-2.16-1.22,1,1,0,0,1-.7-.86A1.35,1.35,0,0,1,47.16,85a7.74,7.74,0,0,1,3.38,1.64c2.21-2,3.8-4.21,3.8-4.55s0-.34-1.77-.34c-1.17,0-2.6,0-3.77.08-1.72,1.85-6.42,6.24-8,6.24a1.31,1.31,0,0,1-1.35-1.25,1.16,1.16,0,0,1,.73-1,25.36,25.36,0,0,0,8.4-7.64,1.22,1.22,0,0,1,1-.6A1.44,1.44,0,0,1,51,78.83c0,.21-.08.42-.5,1,1.54,0,3.2-.08,4.29-.08,1.43,0,2.42.8,2.42,1.9a2.81,2.81,0,0,1-.55,1.53,30.89,30.89,0,0,1-6.52,6.73c.83,0,1.74,0,2.65,0,1.48,0,3,0,4.34,0a2.68,2.68,0,0,1,2.71,2.31c0,.76,0,1.56,0,2.37s0,1.61,0,2.42A2.79,2.79,0,0,1,57,99.61c-1.25,0-2.57.08-3.85.08-1.45,0-2.88,0-4.1-.08A2.67,2.67,0,0,1,46.2,97c0-.62-.05-1.32-.05-2s0-1.74.05-2.44C44.28,93.63,41.34,94.9,40.48,94.9Zm17-.15c0-.6,0-1.2,0-1.72s-.37-1-1.2-1c-1,0-2.16-.06-3.28-.06s-2.21,0-3.14.06a1.13,1.13,0,0,0-1.2,1c0,.41,0,.88,0,1.37,0,.65,0,1.36,0,1.95,0,1.1.44,1.1,4.37,1.1,1.12,0,2.26,0,3.3-.06.65,0,1.12-.31,1.15-1C57.43,95.89,57.43,95.32,57.43,94.75Z"/><path class="cls-2" d="M86.68,88.82l-5.51,0a14.54,14.54,0,0,0,1.4,3.12,13.89,13.89,0,0,0,2.53-2,1,1,0,0,1,.72-.33,1.35,1.35,0,0,1,1.28,1.24c0,.86-1.59,1.82-3.38,2.73a12.58,12.58,0,0,0,3.48,3.07,1.16,1.16,0,0,1,.63,1,1.32,1.32,0,0,1-1.3,1.27c-1.28,0-4-2.91-5.59-6.32l0,.73L81.14,97v.15c0,1.38-.8,3.1-3.69,3.1-1.74,0-2.68-.31-2.68-1.33a1.1,1.1,0,0,1,1.07-1.17.58.58,0,0,1,.23,0,7.56,7.56,0,0,0,1.41.18c.8,0,1.35-.31,1.35-1.51l0-7.69-4.7,0a1.2,1.2,0,0,1-.55-.11,1.31,1.31,0,0,1,.11.42,1.2,1.2,0,0,1-1.12,1.17,1,1,0,0,1-.76-.42,12.66,12.66,0,0,0-1-1.24c0,4,.13,10.58.13,10.58v0a1.16,1.16,0,0,1-1.27,1.1,1.15,1.15,0,0,1-1.27-1.1v0l.1-9.39a24,24,0,0,1-2.21,3.28,1.34,1.34,0,0,1-1.07.54,1.24,1.24,0,0,1-1.24-1.17,1.3,1.3,0,0,1,.41-.91,22.92,22.92,0,0,0,4.11-6.21v-.6l-2.52,0h0a1.05,1.05,0,0,1-1.15-1.09,1.17,1.17,0,0,1,1.2-1.19H68.4l-.07-4.29v0a1.18,1.18,0,0,1,1.3-1.12,1.14,1.14,0,0,1,1.24,1.12v0s-.05,2-.07,4.29h1.76a1.14,1.14,0,0,1,0,2.28h0l-1.79,0c0,.62,0,1.25,0,1.82a.63.63,0,0,1,.32.08,9.75,9.75,0,0,1,2,1.48.77.77,0,0,1,0-.26,1,1,0,0,1,1-1h4.7l0-1.4H75.24a.92.92,0,0,1-1-.88,1,1,0,0,1,1-1h3.54V82.34H74.51a.93.93,0,0,1-1.06-.91,1,1,0,0,1,1.06-1H76.7A5.66,5.66,0,0,0,75.45,79a.85.85,0,0,1-.36-.67,1.15,1.15,0,0,1,1.19-1,4.12,4.12,0,0,1,2.6,2.58,1.18,1.18,0,0,1-.13.52h1.82A18.36,18.36,0,0,0,82,77.85a1,1,0,0,1,1-.65,1.33,1.33,0,0,1,1.35,1.14c0,.26-.07.55-1.17,2.11H86a.95.95,0,1,1,0,1.89H80.94l0,1.28h3.93a.94.94,0,1,1,0,1.87H81l0,1.4h5.69a.93.93,0,0,1,1,1,.9.9,0,0,1-.93,1Zm-13.6,9.12a1.22,1.22,0,0,1-1.19-1.27,1.06,1.06,0,0,1,.75-1A15.37,15.37,0,0,0,77,93.34a1,1,0,0,1,1.56.83,1.32,1.32,0,0,1-.52,1C76.75,96.23,73.89,97.94,73.08,97.94Zm2.79-5.12a5.82,5.82,0,0,0-2.06-1.27.78.78,0,0,1-.49-.73,1.18,1.18,0,0,1,1.12-1.09c.41,0,3.22.88,3.22,2.18a1.24,1.24,0,0,1-1.09,1.25A1,1,0,0,1,75.87,92.82Z"/></g></g></svg>