<svg xmlns="http://www.w3.org/2000/svg" viewBox="0 0 455.06 148.52"><defs><style>.cls-1{fill:#c1ab05;}.cls-2{fill:#fff;}</style></defs><g id="レイヤー_2" data-name="レイヤー 2"><g id="レイヤー_1-2" data-name="レイヤー 1"><polygon class="cls-1" points="251.81 51.89 259.13 12.31 241.17 33.26 228.53 12.31 215.89 33.26 197.92 12.31 205.24 51.89 251.81 51.89"/><rect class="cls-1" x="205.74" y="54.89" width="45.57" height="8.32"/><circle class="cls-1" cx="195.93" cy="7.32" r="3.66"/><circle class="cls-1" cx="259.13" cy="7.32" r="3.66"/><circle class="cls-1" cx="228.53" cy="3.66" r="3.66"/><path class="cls-1" d="M446.06,148.52H9a9,9,0,0,0-9-9V79a9,9,0,0,0,9-9H446.06a9,9,0,0,0,9,9v60.54A9,9,0,0,0,446.06,148.52Z"/><path class="cls-2" d="M159.09,108.93v16.64a1.55,1.55,0,0,1-1.64,1.64,1.57,1.57,0,0,1-1.64-1.64V122c-3.08,1-10.44,3.28-12,3.28a1.64,1.64,0,0,1-1.68-1.68,1.62,1.62,0,0,1,1.44-1.64c1.16-.16,2.44-.44,3.76-.72V108.93h-3.64a1.5,1.5,0,0,1-1.64-1.52,1.6,1.6,0,0,1,1.64-1.68h31.75a1.6,1.6,0,0,1,0,3.2Zm1.39-4.8c-2.67,0-5.31,0-7.83-.08-4.12,0-4.32-2.16-4.32-5.92s.32-5.6,4.2-5.76c1.6-.08,4-.12,6.64-.12,3,0,6.15,0,8.23.12,3.72.12,3.8,3,3.8,5.44,0,3.52,0,6.12-4.08,6.24C164.88,104.09,162.69,104.13,160.48,104.13Zm-4.67,4.8h-5.2v2h5.2Zm0,4.4h-5.2v2h5.2Zm0,4.4h-5.2v2.72c1.92-.48,3.8-1,5.2-1.36Zm-4-18.2c0,.24,0,.44,0,.64.08,1,.56,1.28,1.8,1.28,1.92,0,4.4,0,6.87,0,1.84,0,3.72,0,5.44,0,1,0,1.6-.36,1.64-1.32,0-.2,0-.4,0-.6Zm15.83-2.48c0-.2,0-.4,0-.56-.08-1-.4-1.32-1.64-1.36-1.48,0-3.64-.08-5.79-.08-2.64,0-5.24,0-6.56.08s-1.76.68-1.76,1.48v.44Zm-6.43,16.8a1.37,1.37,0,0,1-1.36-1.48,1.46,1.46,0,0,1,1.36-1.6c1.64,0,3.19,0,4.75,0s3.08,0,4.72.08c2,.08,2.68,1.28,2.68,2.56,0,2.88-3.4,7.2-3.6,7.44a18.78,18.78,0,0,0,5.52,2.32,1.67,1.67,0,0,1,1.32,1.6,2,2,0,0,1-2,2c-1.68,0-5.2-1.88-7.24-3.4-2.24,1.92-4.92,3.2-5.84,3.2a1.77,1.77,0,0,1-1.75-1.76,1.53,1.53,0,0,1,1.12-1.48,15,15,0,0,0,4-2.16c-2-2-3.63-4.52-3.63-5.32a1.87,1.87,0,0,1,1.91-1.6,1.17,1.17,0,0,1,1.08.64,15.07,15.07,0,0,0,3,4,12.56,12.56,0,0,0,2.24-4.52.55.55,0,0,0-.6-.52h-1.28c-1.88,0-3.83,0-6.31.08Z"/><path class="cls-2" d="M189.61,125.53l.48-19.44c-1.56,2.12-2.4,3.16-3.64,3.16a1.86,1.86,0,0,1-1.88-1.76,1.92,1.92,0,0,1,.56-1.32,37.31,37.31,0,0,0,8.08-13.12,1.72,1.72,0,0,1,1.64-1.16,2.27,2.27,0,0,1,2.28,2c0,.28-.08,1.08-3.16,6.32l-.52,25.28a1.88,1.88,0,0,1-2,1.76,1.69,1.69,0,0,1-1.84-1.72Zm18-8.76c2,0,5.15-.08,5.67-.08,1.84,0,2.68.88,2.68,1.92,0,1.24-1.16,2.28-3.76,4.12a31.88,31.88,0,0,0,7.84.88,1.37,1.37,0,0,1,1.32,1.48,1.72,1.72,0,0,1-1.88,1.72,24.83,24.83,0,0,1-10.64-2.12,24.17,24.17,0,0,1-9.39,2.6,1.7,1.7,0,0,1-1.68-1.72,1.4,1.4,0,0,1,1.52-1.4,22.48,22.48,0,0,0,6.56-1.32,10.89,10.89,0,0,1-2.28-2.44c-3,2.44-6.4,4.28-7.36,4.28a1.56,1.56,0,0,1-1.6-1.48,1.45,1.45,0,0,1,1-1.32,33,33,0,0,0,9.28-6.4c-1.72-.32-2.36-1.28-2.36-3,0-2.64,0-3.52,1.44-3.52.72,0,1.47.4,1.47,1.16s0,1.8,0,2.12c0,.68.25.92,2,.92,2.36,0,3.24,0,3.24-1.4a1.18,1.18,0,0,1,1.32-1.16c.76,0,1.56.44,1.56,1.2,0,3.52-1.76,3.64-4.91,3.84a2.37,2.37,0,0,1-.49.68Zm9.67-7.16c0-.88-.32-1.08-1.48-1.08-2.08,0-4.76,0-7.44,0,.48.32,1.88,1.4,1.88,2.4a1.47,1.47,0,0,1-1.4,1.4,1.09,1.09,0,0,1-1-.56,9.25,9.25,0,0,0-1.75-2,.89.89,0,0,1-.36-.68,1,1,0,0,1,.24-.6c-2.12,0-4.12,0-5.72,0s-1.56.48-1.6,1.16v1.36c0,.84-.88,1.32-1.72,1.32s-1.68-.44-1.68-1.36v-1.28c0-1.48.12-3.48,3.4-3.52h1.24c0-2.2,0-4.76,0-6.32s1-2.12,3.44-2.24c.4,0,1.16,0,2.07,0,.09-.32.17-.72.29-1.24l-7,0a1.44,1.44,0,1,1,0-2.88H218.4a1.44,1.44,0,1,1,0,2.88l-9,0c-.12.44-.28.88-.4,1.24,1.52,0,3,0,3.56,0,2.24.08,3.48.88,3.52,2.28,0,.76,0,1.76,0,2.88s0,2.28,0,3.4h1c1.68,0,3.64.68,3.72,2.68v2a1.64,1.64,0,0,1-1.76,1.4,2.36,2.36,0,0,1-.56-.08,3.27,3.27,0,0,1,1.16,2,1.59,1.59,0,0,1-1.56,1.56,1.56,1.56,0,0,1-1.32-.8,11.5,11.5,0,0,0-2.44-2.84,1.3,1.3,0,0,1-.52-1,1.42,1.42,0,0,1,1.48-1.28c.72,0,1.28.52,2,1.16ZM196,115.37a1.39,1.39,0,0,1,.88-1.24,6.1,6.1,0,0,0,2.28-2.52,1.19,1.19,0,0,1,1.16-.88,1.58,1.58,0,0,1,1.6,1.4c0,1.32-2.68,4.6-4.36,4.6A1.51,1.51,0,0,1,196,115.37Zm16.83-14.64c0-.16,0-.32,0-.44-.08-.72-.08-.8-4.84-.8-4,0-4.63,0-4.63.8l0,.44Zm0,1.52h-9.55v1.24h9.55Zm0,2.72h-9.51l0,1.2c1.56,0,3.11,0,4.71,0s3.2,0,4.72,0Zm-1.52,14.4a.19.19,0,0,0-.2-.2H211c-.16,0-2.8,0-4.76,0a9.86,9.86,0,0,0,2.64,2.2C209.4,121.05,211.24,119.85,211.24,119.37Z"/><path class="cls-2" d="M262.28,102.85l-11.47-.2c4.23,3.28,8.51,4.88,13.23,6.52a1.64,1.64,0,0,1,1.28,1.56,2.32,2.32,0,0,1-2.32,2.16c-1,0-7.56-2.68-13.71-7.84l.07,2.84v0c0,1-.92,1.52-1.87,1.52a1.69,1.69,0,0,1-1.88-1.52v0l.08-2.72c-4.88,4.36-12.52,8.24-14,8.24a1.92,1.92,0,0,1-2-1.8,1.8,1.8,0,0,1,1.32-1.64,41,41,0,0,0,12.84-7.28l-11.08.16h0a1.58,1.58,0,0,1-1.68-1.64,1.64,1.64,0,0,1,1.72-1.64l12.88,0,0-2.6c-2.44.12-4.84.2-6.92.2-1,0-1.84,0-2.6,0a1.82,1.82,0,0,1-2-1.72c0-.76.6-1.52,1.84-1.52h.08c1.24,0,2.52.08,3.84.08a88.68,88.68,0,0,0,16.59-1.48,2.46,2.46,0,0,1,.52,0,1.66,1.66,0,0,1,1.72,1.72,1.51,1.51,0,0,1-1.2,1.56c-2.2.4-5.16.76-8.24,1l0,2.84,13,0a1.59,1.59,0,0,1,1.64,1.64,1.56,1.56,0,0,1-1.6,1.64Zm-9.52,15.32a1.9,1.9,0,0,1-1.87,1.24c-.88,0-1.72-.48-1.72-1.28a1,1,0,0,1,.08-.48,23.92,23.92,0,0,0,1.27-4.16.6.6,0,0,0-.67-.56l-2.84,0c-1.56,12.4-13.28,14.32-13.44,14.32a1.94,1.94,0,0,1-1.92-1.88,1.63,1.63,0,0,1,1.36-1.6c6.12-1.64,9.8-5.36,10.4-10.84-1.2,0-2.44,0-3.64,0h0a1.4,1.4,0,0,1-1.48-1.48,1.47,1.47,0,0,1,1.52-1.52c1.92,0,4.36-.08,6.72-.08,1.68,0,3.32,0,4.67,0,1.76,0,3.2.72,3.2,2.44a11.55,11.55,0,0,1-.48,2.36h1.48c2.16,0,4.56.44,4.56,3.2a3.66,3.66,0,0,1,0,.64c-.48,3.88-2,8.24-8.36,8.24a17.52,17.52,0,0,1-4.27-.6,1.86,1.86,0,0,1-1.56-1.76,1.77,1.77,0,0,1,1.8-1.8,1.87,1.87,0,0,1,.64.08,12.44,12.44,0,0,0,3.56.64,3.94,3.94,0,0,0,3.75-2,8.49,8.49,0,0,0,.76-2.92c0-.52-.32-.76-1-.76H253Z"/><path class="cls-2" d="M297.84,122a27.72,27.72,0,0,0,8.44,1.64,1.78,1.78,0,0,1,1.88,1.76,1.94,1.94,0,0,1-2.08,1.92,32.42,32.42,0,0,1-10.64-2.64,1.5,1.5,0,0,1-1-1.4A1.94,1.94,0,0,1,295,122h-6.8a1.91,1.91,0,0,1,.48,1.24,1.65,1.65,0,0,1-1,1.48,31.71,31.71,0,0,1-10.72,2.76,1.91,1.91,0,0,1-2.12-1.8,1.87,1.87,0,0,1,2-1.8,22.77,22.77,0,0,0,8.6-1.88l-.88,0c-2.8,0-4.16-1.2-4.24-2.72-.08-1.32-.12-2.56-.12-3.8,0-1.4,0-2.76.12-4.12s1.08-2.68,4.16-2.72c2.64,0,5.4,0,8.28,0,2.08,0,4.23,0,6.39,0,2.36,0,3.84,1.08,3.92,2.52s.16,3,.16,4.48c0,1.2,0,2.44-.12,3.6-.08,1.48-1.44,2.72-4.12,2.76Zm6.08-18.6v-1.76c0-1.64-.12-2.2-2.16-2.24-3.2,0-7.4-.08-11.43-.08-3.36,0-6.6,0-9,.08-2.16,0-2.2.84-2.24,1.76v2.16a1.91,1.91,0,0,1-3.8,0c0-.48,0-1,0-1.64,0-2.36,0-5,4.28-5l3,0c-.48-.6-1-1.12-1.48-1.68a1.29,1.29,0,0,1-.36-.8c0-.88,1.08-1.64,2.08-1.64,1.52,0,3.2,2.88,3.84,4.08,1,0,2.08,0,3.12,0V93.37a1.89,1.89,0,0,1,2-2,1.86,1.86,0,0,1,2,2v3.12h3.31a24.93,24.93,0,0,0,1.52-3.16,1.77,1.77,0,0,1,1.72-1.2A2.06,2.06,0,0,1,302.24,94c0,.24,0,.72-1.36,2.56.92,0,1.76.08,2.64.08,2.44,0,4.16,1.28,4.28,3.36,0,.48.08,1.12.08,1.72,0,1.76,0,3.48-2.08,3.48a1.74,1.74,0,0,1-1.88-1.72Zm-11.4-2.8c8.72,0,9,0,9,3.36s-.68,3.4-9.79,3.4c-9.32,0-10.2,0-10.2-3.24,0-2.4.32-3.48,4-3.48C287.73,100.61,290.13,100.61,292.52,100.61Zm-8.71,13.8v1.48h15.63c0-.52,0-1,0-1.48Zm15.55-2.32c-.08-1.24-.2-1.24-7.71-1.24-2.12,0-4.24,0-6.12.08-1.2,0-1.6.6-1.64,1.16v.24h15.47Zm0,5.88H283.89v.4c0,.84.6,1.12,1.64,1.16,1.88,0,4,0,6.08,0s4.23,0,6.19,0c1,0,1.52-.32,1.56-1.16Zm-2.92-15c-1.51,0-3.15,0-4.83,0s-3.36,0-5,0c-.88,0-1.28.16-1.28.72v.6c0,.44.36.64,5.52.64,6.75,0,6.75,0,6.75-1C297.64,103.37,297.48,103,296.44,103Z"/></g></g></svg>