<svg xmlns="http://www.w3.org/2000/svg" viewBox="0 0 260.04 77.63"><defs><style>.cls-1{fill:#c1ab05;}.cls-2{fill:#fff;}</style></defs><g id="レイヤー_2" data-name="レイヤー 2"><g id="レイヤー_1-2" data-name="レイヤー 1"><polygon class="cls-1" points="142.35 26.36 146.07 6.25 136.95 16.89 130.53 6.25 124.11 16.89 114.98 6.25 118.7 26.36 142.35 26.36"/><rect class="cls-1" x="118.95" y="27.88" width="23.15" height="4.22"/><circle class="cls-1" cx="113.97" cy="3.72" r="1.86"/><circle class="cls-1" cx="146.07" cy="3.72" r="1.86"/><circle class="cls-1" cx="130.53" cy="1.86" r="1.86"/><path class="cls-1" d="M254,77.63H6a6,6,0,0,0-6-6V45.22a6,6,0,0,0,6-6H254a6,6,0,0,0,6,6V71.63A6,6,0,0,0,254,77.63Z"/><path class="cls-2" d="M98.37,58.19v8.32a.78.78,0,0,1-.82.82.79.79,0,0,1-.82-.82V64.73a45.3,45.3,0,0,1-6,1.64.82.82,0,0,1-.84-.84.81.81,0,0,1,.72-.82c.58-.08,1.22-.22,1.88-.36V58.19H90.67a.75.75,0,0,1-.82-.76.8.8,0,0,1,.82-.84h15.88a.8.8,0,0,1,0,1.6Zm.7-2.4c-1.34,0-2.66,0-3.92,0-2.06,0-2.16-1.08-2.16-3s.16-2.8,2.1-2.88c.8,0,2-.06,3.32-.06,1.5,0,3.08,0,4.12.06,1.86.06,1.9,1.52,1.9,2.72,0,1.76,0,3.06-2,3.12C101.27,55.77,100.17,55.79,99.07,55.79Zm-2.34,2.4h-2.6v1h2.6Zm0,2.2h-2.6v1h2.6Zm0,2.2h-2.6V64c1-.24,1.9-.48,2.6-.68Zm-2-9.1c0,.12,0,.22,0,.32,0,.52.28.64.9.64,1,0,2.2,0,3.44,0,.92,0,1.86,0,2.72,0,.48,0,.8-.18.82-.66,0-.1,0-.2,0-.3Zm7.92-1.24c0-.1,0-.2,0-.28,0-.48-.2-.66-.82-.68s-1.82,0-2.9,0c-1.32,0-2.62,0-3.28,0s-.88.34-.88.74v.22Zm-3.22,8.4a.69.69,0,0,1-.68-.74.73.73,0,0,1,.68-.8c.82,0,1.6,0,2.38,0s1.54,0,2.36,0a1.21,1.21,0,0,1,1.34,1.28c0,1.44-1.7,3.6-1.8,3.72a9.39,9.39,0,0,0,2.76,1.16.83.83,0,0,1,.66.8,1,1,0,0,1-1,1,8.76,8.76,0,0,1-3.62-1.7A6.77,6.77,0,0,1,99.59,67a.89.89,0,0,1-.88-.88.76.76,0,0,1,.56-.74,7.54,7.54,0,0,0,2-1.08,6.79,6.79,0,0,1-1.82-2.66.94.94,0,0,1,1-.8.59.59,0,0,1,.54.32,7.54,7.54,0,0,0,1.48,2,6.28,6.28,0,0,0,1.12-2.26.27.27,0,0,0-.3-.26h-.64c-.94,0-1.92,0-3.16,0Z"/><path class="cls-2" d="M113.63,66.49l.24-9.72c-.78,1.06-1.2,1.58-1.82,1.58a.93.93,0,0,1-.94-.88,1,1,0,0,1,.28-.66,18.66,18.66,0,0,0,4-6.56.86.86,0,0,1,.82-.58,1.13,1.13,0,0,1,1.14,1c0,.14,0,.54-1.58,3.16l-.26,12.64a.94.94,0,0,1-1,.88.84.84,0,0,1-.92-.86Zm9-4.38,2.84,0c.92,0,1.34.44,1.34,1s-.58,1.14-1.88,2.06a15.94,15.94,0,0,0,3.92.44.68.68,0,0,1,.66.74.86.86,0,0,1-.94.86,12.41,12.41,0,0,1-5.32-1.06,12.12,12.12,0,0,1-4.7,1.3.85.85,0,0,1-.84-.86.7.7,0,0,1,.76-.7,11.24,11.24,0,0,0,3.28-.66,5.45,5.45,0,0,1-1.14-1.22,10.67,10.67,0,0,1-3.68,2.14.78.78,0,0,1-.8-.74.72.72,0,0,1,.5-.66,16.51,16.51,0,0,0,4.64-3.2A1.31,1.31,0,0,1,120.09,60c0-1.32,0-1.76.72-1.76.36,0,.74.2.74.58s0,.9,0,1.06c0,.34.12.46,1,.46,1.18,0,1.62,0,1.62-.7a.59.59,0,0,1,.66-.58c.38,0,.78.22.78.6,0,1.76-.88,1.82-2.46,1.92a1.07,1.07,0,0,1-.24.34Zm4.84-3.58c0-.44-.16-.54-.74-.54-1,0-2.38,0-3.72,0,.24.16.94.7.94,1.2a.74.74,0,0,1-.7.7.54.54,0,0,1-.48-.28,4.49,4.49,0,0,0-.88-1,.45.45,0,0,1-.18-.34.48.48,0,0,1,.12-.3c-1.06,0-2.06,0-2.86,0s-.78.24-.8.58v.68c0,.42-.44.66-.86.66s-.84-.22-.84-.68v-.64c0-.74.06-1.74,1.7-1.76h.62c0-1.1,0-2.38,0-3.16s.48-1.06,1.72-1.12l1,0c0-.16.08-.36.14-.62l-3.5,0a.72.72,0,1,1,0-1.44H128a.72.72,0,1,1,0,1.44l-4.5,0c-.06.22-.14.44-.2.62.76,0,1.48,0,1.78,0,1.12,0,1.74.44,1.76,1.14,0,.38,0,.88,0,1.44s0,1.14,0,1.7h.5c.84,0,1.82.34,1.86,1.34v1a.82.82,0,0,1-.88.7,1.18,1.18,0,0,1-.28,0,1.64,1.64,0,0,1,.58,1,.79.79,0,0,1-.78.78.78.78,0,0,1-.66-.4A5.75,5.75,0,0,0,126,59.81a.65.65,0,0,1-.26-.48.71.71,0,0,1,.74-.64c.36,0,.64.26,1,.58Zm-10.66,2.88a.7.7,0,0,1,.44-.62,3.05,3.05,0,0,0,1.14-1.26.6.6,0,0,1,.58-.44.79.79,0,0,1,.8.7c0,.66-1.34,2.3-2.18,2.3A.75.75,0,0,1,116.81,61.41Zm8.42-7.32c0-.08,0-.16,0-.22,0-.36,0-.4-2.42-.4-2,0-2.32,0-2.32.4l0,.22Zm0,.76h-4.78v.62h4.78Zm0,1.36h-4.76l0,.6c.78,0,1.56,0,2.36,0s1.6,0,2.36,0Zm-.76,7.2a.09.09,0,0,0-.1-.1h0c-.08,0-1.4,0-2.38,0a4.78,4.78,0,0,0,1.32,1.1C123.53,64.25,124.45,63.65,124.45,63.41Z"/><path class="cls-2" d="M150,55.15l-5.74-.1a21.72,21.72,0,0,0,6.62,3.26.82.82,0,0,1,.64.78,1.16,1.16,0,0,1-1.16,1.08,19.31,19.31,0,0,1-6.86-3.92l0,1.42v0c0,.5-.46.76-.94.76a.85.85,0,0,1-.94-.76v0l0-1.36c-2.44,2.18-6.26,4.12-7,4.12a1,1,0,0,1-1-.9.9.9,0,0,1,.66-.82,20.5,20.5,0,0,0,6.42-3.64l-5.54.08h0a.79.79,0,0,1-.84-.82.82.82,0,0,1,.86-.82l6.44,0,0-1.3c-1.22.06-2.42.1-3.46.1l-1.3,0a.91.91,0,0,1-1-.86c0-.38.3-.76.92-.76h0c.62,0,1.26,0,1.92,0a44.43,44.43,0,0,0,8.3-.74,1.23,1.23,0,0,1,.26,0,.83.83,0,0,1,.86.86.75.75,0,0,1-.6.78c-1.1.2-2.58.38-4.12.5l0,1.42,6.5,0a.8.8,0,0,1,.82.82.78.78,0,0,1-.8.82Zm-4.76,7.66a1,1,0,0,1-.94.62c-.44,0-.86-.24-.86-.64a.51.51,0,0,1,0-.24,11.91,11.91,0,0,0,.64-2.08c0-.2-.18-.28-.34-.28l-1.42,0a8.27,8.27,0,0,1-6.72,7.16,1,1,0,0,1-1-.94.81.81,0,0,1,.68-.8c3.06-.82,4.9-2.68,5.2-5.42-.6,0-1.22,0-1.82,0h0a.7.7,0,0,1-.74-.74.73.73,0,0,1,.76-.76c1,0,2.18,0,3.36,0l2.34,0c.88,0,1.6.36,1.6,1.22a5.78,5.78,0,0,1-.24,1.18h.74c1.08,0,2.28.22,2.28,1.6a1.83,1.83,0,0,1,0,.32c-.24,1.94-1,4.12-4.18,4.12a8.76,8.76,0,0,1-2.14-.3.93.93,0,0,1-.78-.88.88.88,0,0,1,.9-.9.94.94,0,0,1,.32,0,6.25,6.25,0,0,0,1.78.32,2,2,0,0,0,1.88-1,4.25,4.25,0,0,0,.38-1.46c0-.26-.16-.38-.52-.38h-1.1Z"/><path class="cls-2" d="M167.75,64.73a13.86,13.86,0,0,0,4.22.82.89.89,0,0,1,.94.88,1,1,0,0,1-1,1,16.21,16.21,0,0,1-5.32-1.32.74.74,0,0,1-.5-.7,1,1,0,0,1,.26-.64h-3.4a1,1,0,0,1,.24.62.82.82,0,0,1-.5.74,15.85,15.85,0,0,1-5.36,1.38,1,1,0,0,1-1.06-.9.93.93,0,0,1,1-.9,11.38,11.38,0,0,0,4.3-.94l-.44,0c-1.4,0-2.08-.6-2.12-1.36s-.06-1.28-.06-1.9,0-1.38.06-2.06.54-1.34,2.08-1.36c1.32,0,2.7,0,4.14,0,1,0,2.12,0,3.2,0s1.92.54,2,1.26.08,1.48.08,2.24c0,.6,0,1.22-.06,1.8,0,.74-.72,1.36-2.06,1.38Zm3-9.3v-.88c0-.82-.06-1.1-1.08-1.12-1.6,0-3.7,0-5.72,0-1.68,0-3.3,0-4.52,0s-1.1.42-1.12.88v1.08a1,1,0,0,1-1.9,0c0-.24,0-.52,0-.82,0-1.18,0-2.5,2.14-2.52l1.48,0c-.24-.3-.48-.56-.74-.84a.64.64,0,0,1-.18-.4c0-.44.54-.82,1-.82.76,0,1.6,1.44,1.92,2l1.56,0V50.41a.94.94,0,0,1,1-1,.93.93,0,0,1,1,1V52h1.66a12.47,12.47,0,0,0,.76-1.58.88.88,0,0,1,.86-.6,1,1,0,0,1,1.06.92c0,.12,0,.36-.68,1.28.46,0,.88,0,1.32,0,1.22,0,2.08.64,2.14,1.68,0,.24,0,.56,0,.86,0,.88,0,1.74-1,1.74a.87.87,0,0,1-.94-.86Zm-5.7-1.4c4.36,0,4.48,0,4.48,1.68s-.34,1.7-4.9,1.7-5.1,0-5.1-1.62c0-1.2.16-1.74,2-1.74C162.69,54,163.89,54,165.09,54Zm-4.36,6.9v.74h7.82c0-.26,0-.5,0-.74Zm7.78-1.16c0-.62-.1-.62-3.86-.62-1.06,0-2.12,0-3.06,0-.6,0-.8.3-.82.58v.12h7.74Zm0,2.94h-7.74v.2c0,.42.3.56.82.58.94,0,2,0,3,0s2.12,0,3.1,0c.5,0,.76-.16.78-.58Zm-1.46-7.5c-.76,0-1.58,0-2.42,0s-1.68,0-2.48,0c-.44,0-.64.08-.64.36v.3c0,.22.18.32,2.76.32,3.38,0,3.38,0,3.38-.52C167.65,55.41,167.57,55.21,167.05,55.21Z"/></g></g></svg>