<svg xmlns="http://www.w3.org/2000/svg" viewBox="0 0 50.1 50.09"><defs><style>.cls-1{fill:#333;}</style></defs><g id="レイヤー_2" data-name="レイヤー 2"><g id="レイヤー_1-2" data-name="レイヤー 1"><path id="Icon_awesome-instagram" data-name="Icon awesome-instagram" class="cls-1" d="M25.06,12.2a12.82,12.82,0,1,0,.05,0Zm0,21.19A8.35,8.35,0,1,1,33.41,25a8.35,8.35,0,0,1-8.35,8.35ZM41.43,11.68a3,3,0,1,1-3-3,3,3,0,0,1,3,3v0Zm8.5,3c-.19-4-1.1-7.57-4-10.5S39.4.37,35.39.17,18.85-.06,14.72.17s-7.55,1.11-10.5,4S.37,10.7.17,14.71s-.23,16.53,0,20.67S1.28,43,4.22,45.87s6.48,3.85,10.49,4.05,16.54.23,20.67,0,7.57-1.11,10.5-4.05,3.85-6.48,4-10.49.23-16.52,0-20.66ZM44.59,39.81a8.49,8.49,0,0,1-4.76,4.77c-3.3,1.31-11.13,1-14.77,1s-11.48.29-14.77-1a8.46,8.46,0,0,1-4.76-4.77c-1.31-3.29-1-11.12-1-14.76s-.29-11.48,1-14.77a8.44,8.44,0,0,1,4.76-4.76c3.3-1.31,11.12-1,14.77-1s11.48-.29,14.77,1a8.44,8.44,0,0,1,4.76,4.76c1.31,3.3,1,11.12,1,14.77S45.9,36.53,44.59,39.81Z"/></g></g></svg>