<svg xmlns="http://www.w3.org/2000/svg" viewBox="0 0 50.11 40.7"><defs><style>.cls-1{fill:#333;}</style></defs><g id="レイヤー_2" data-name="レイヤー 2"><g id="レイヤー_1-2" data-name="レイヤー 1"><path id="Icon_awesome-twitter" data-name="Icon awesome-twitter" class="cls-1" d="M45,10.14c0,.45,0,.89,0,1.34C45,25.05,34.66,40.7,15.77,40.7A29.09,29.09,0,0,1,0,36.09a20.49,20.49,0,0,0,2.48.12,20.49,20.49,0,0,0,12.75-4.39,10.29,10.29,0,0,1-9.6-7.12,12.59,12.59,0,0,0,1.94.16,10.7,10.7,0,0,0,2.7-.35A10.26,10.26,0,0,1,2,14.43v-.12a10.47,10.47,0,0,0,4.64,1.31A10.28,10.28,0,0,1,3.5,1.87,29.19,29.19,0,0,0,24.67,12.61a11.58,11.58,0,0,1-.25-2.35,10.28,10.28,0,0,1,17.77-7A20.09,20.09,0,0,0,48.71.76,10.22,10.22,0,0,1,44.2,6.42a20.54,20.54,0,0,0,5.91-1.59A22.06,22.06,0,0,1,45,10.15Z"/></g></g></svg>