<svg xmlns="http://www.w3.org/2000/svg" viewBox="0 0 180 180"><defs><style>.cls-1{fill:#e6beb1;}.cls-2{fill:#fff;}.cls-3{fill:none;stroke:#fff;stroke-miterlimit:10;}</style></defs><g id="レイヤー_2" data-name="レイヤー 2"><g id="レイヤー_1-2" data-name="レイヤー 1"><circle class="cls-1" cx="90" cy="90" r="90"/><path class="cls-2" d="M36.4,94.19c0,1.2.47,1.77,2,2s5.2,0,6.82-.87c2.17-1.18,3.75,1.42.93,2.67-2.1.92-6.1,1-8.68.67A3.59,3.59,0,0,1,34,94.91c0-2.47.15-4.42.27-7.35a14.11,14.11,0,0,0-.15-3.15,1.41,1.41,0,1,1,2.8-.1,20.27,20.27,0,0,1-.1,3.13c0,.62-.07,1.2-.1,1.72a27,27,0,0,0,4.58-1.32,7.55,7.55,0,0,0,2.15-1.18c1.32-1.12,3.54.55,2.15,2A8,8,0,0,1,43,90a36.05,36.05,0,0,1-6.48,1.75C36.47,92.51,36.45,93.29,36.4,94.19ZM48,86.56a2.61,2.61,0,0,1,0-5.22,2.61,2.61,0,1,1,0,5.22Zm0-3.87A1.25,1.25,0,0,0,46.74,84,1.24,1.24,0,0,0,48,85.21,1.26,1.26,0,0,0,49.27,84,1.28,1.28,0,0,0,48,82.69Z"/><path class="cls-2" d="M58.77,91.94c-1.72,1.15-3.2-1.13-1.45-2.18A18.32,18.32,0,0,0,62.75,84a7.91,7.91,0,0,0,1-2c.45-1.67,3-1.22,2.68.43a4,4,0,0,1-.38,1.1c1.2-.2,2.5-.5,3.63-.58,1.75-.1,3.29,1.13,2.34,2.75-4,6.9-7.67,11.72-14.42,14.35-2.15.82-3.12-1.73-1-2.43,5.28-1.77,9.38-6.27,12.25-11.69.25-.5,0-.6-.35-.6a36.87,36.87,0,0,0-4,.62A25.69,25.69,0,0,1,58.77,91.94Z"/><path class="cls-2" d="M92.6,90.44c-.35,3.57-3.48,7.89-8.2,9.74-2.43.95-2.93-1.82-1.18-2.37,4-1.25,6.5-4.92,6.73-7.47a1.71,1.71,0,0,0-.3-1.15,1.31,1.31,0,0,1-.18-.38c-1.52.18-3,.38-4,.5-1.42.15-2.3.43-3.1.48a1.27,1.27,0,1,1,0-2.53c.9-.07,2-.05,3.15-.17,1.9-.2,6.1-.68,8.7-.9a14.36,14.36,0,0,1,3.54-.2c1.13.15,1.55.52,1.53,1.25s-.58,1.22-1.65,1.22c-1.52,0-2.87-.1-4.3,0-.27,0-.55,0-.85.05A3.55,3.55,0,0,1,92.6,90.44ZM92.22,84c-1.47.1-2.87.25-4,.37a20,20,0,0,1-3,.23c-1.6,0-2-2.33,0-2.4.88,0,1.58.05,2.48,0l4.42-.45a9.33,9.33,0,0,0,1.15-.23,5,5,0,0,1,1.23-.15c1.89.08,2.3,2.38,0,2.53Z"/><path class="cls-2" d="M114.85,93.06a22.93,22.93,0,0,1-4.4,3.45c-1.88,1.15-3-1.05-1.53-1.75,2.83-1.4,6.8-5,7.9-8.07.45-1.3,2.88-.6,2.15,1a9.22,9.22,0,0,1-.87,1.55c-.45.6-.88,1.17-1.33,1.72a.75.75,0,0,1,.1.2,4.14,4.14,0,0,1,.1,1.8c-.07,1.38,0,4,0,5.9a1.23,1.23,0,0,1-1.12,1.37c-.6.08-1.13-.37-1.13-1.25,0-1.87.2-4.17.13-5.84Z"/><path class="cls-2" d="M133.42,100c-2.17,1.3-3.95-1.2-1.67-2.35a10.4,10.4,0,0,0,5.95-7.8,7.19,7.19,0,0,0,0-2.27c-.3-1.55,2.52-2.1,2.87-.25a6,6,0,0,1,.05,1A12.62,12.62,0,0,0,144.9,85c.42-.58.5-.88-.45-.83-3.15.13-7.18.68-8.3.83a17.73,17.73,0,0,1-3.43.32,1.31,1.31,0,1,1,.18-2.6,32.84,32.84,0,0,0,3.3-.2c1.1-.07,5.27-.47,9.29-.7,2.8-.15,3.88,2,2.1,4a16.13,16.13,0,0,1-6.27,4.8,1.37,1.37,0,0,1-1,0A14,14,0,0,1,133.42,100Z"/><path class="cls-2" d="M46.67,130a1.14,1.14,0,0,1-.35-2.23c.85-.32,2-.82,3.08-1.32a15.12,15.12,0,0,1,5.77-1.68,4.23,4.23,0,0,1,4.52,4c0,4.25-7.42,6.47-9.12,6.47a1.16,1.16,0,0,1-1.22-1.15,1.07,1.07,0,0,1,1-1c4.18-.57,7-2.54,7-4.34a2.19,2.19,0,0,0-2.35-2,12.67,12.67,0,0,0-4.85,1.67C47.52,129.81,47.1,130,46.67,130Z"/><path class="cls-2" d="M82.69,135.48h-.25c-5.42-.5-8.84-4.25-8.84-8.09a7,7,0,0,1,1.8-4.58.54.54,0,0,0,.12-.22,0,0,0,0,0,0,0,.84.84,0,0,0-.25.1c-3.92,2-4.4,2.17-5,2.17a1.34,1.34,0,0,1-.37-2.65c.52-.17,1.95-.6,2.7-.87,1.17-.43,3.25-1.08,5.72-2.05a19,19,0,0,1,6.62-1.55c1.25,0,1.7.57,1.7,1.22,0,1.28-1,1.55-2,1.55-.18,0-.38,0-.58,0a4,4,0,0,0-.6,0c-3.87,0-7.67,3.3-7.67,6.65,0,3,2.85,5.55,6.77,5.55,1.25,0,1.85.72,1.85,1.47S83.85,135.48,82.69,135.48Z"/><path class="cls-2" d="M100.87,129.54c0-3.18,3.28-4.63,4.18-6.28a4.32,4.32,0,0,0,.55-2.05,2.77,2.77,0,0,0-2.85-3,3.19,3.19,0,0,0-3,2.32,1.22,1.22,0,0,1-1.27.75,1.24,1.24,0,0,1-1.38-1.2,5.52,5.52,0,0,1,5.65-4.37,5.29,5.29,0,0,1,5.5,5.47,6.83,6.83,0,0,1-.5,2.5c-.9,2.25-4.17,3.53-4.17,5.8a1.39,1.39,0,0,1-1.4,1.45A1.26,1.26,0,0,1,100.87,129.54Zm1.35,6.54a1.73,1.73,0,0,1-1.72-1.65,1.8,1.8,0,0,1,1.72-1.72,1.61,1.61,0,0,1,1.73,1.72A1.66,1.66,0,0,1,102.22,136.08Z"/><path class="cls-2" d="M125.87,129.54c0-3.18,3.28-4.63,4.18-6.28a4.32,4.32,0,0,0,.55-2.05,2.77,2.77,0,0,0-2.85-3,3.19,3.19,0,0,0-3,2.32,1.22,1.22,0,0,1-1.27.75,1.24,1.24,0,0,1-1.38-1.2,5.52,5.52,0,0,1,5.65-4.37,5.29,5.29,0,0,1,5.5,5.47,6.83,6.83,0,0,1-.5,2.5c-.9,2.25-4.17,3.53-4.17,5.8a1.39,1.39,0,0,1-1.4,1.45A1.26,1.26,0,0,1,125.87,129.54Zm1.35,6.54a1.73,1.73,0,0,1-1.72-1.65,1.8,1.8,0,0,1,1.72-1.72,1.61,1.61,0,0,1,1.73,1.72A1.66,1.66,0,0,1,127.22,136.08Z"/><circle class="cls-3" cx="90" cy="90" r="85.5"/><path class="cls-2" d="M89.85,46.05a3,3,0,0,0-2,.75,2.33,2.33,0,0,0-.89,1.88,2.36,2.36,0,0,0,.89,1.9,3,3,0,0,0,2,.76,3.09,3.09,0,0,0,2.06-.76,2.4,2.4,0,0,0,.89-1.9,2.33,2.33,0,0,0-.89-1.88A3.08,3.08,0,0,0,89.85,46.05Z"/><path class="cls-2" d="M96.84,36A4.78,4.78,0,0,0,95,32.18a8.38,8.38,0,0,0-10.63.55,4.62,4.62,0,0,0-1.59,3,1.76,1.76,0,0,0,.55,1.35,1.71,1.71,0,0,0,1.3.55,2.21,2.21,0,0,0,1.8-1.09,6.83,6.83,0,0,1,1.3-1.62A3.38,3.38,0,0,1,90,34.19c2.07,0,3.1.68,3.1,2,0,.59-.43,1.14-1.3,1.64l-2.5,1.31A2.85,2.85,0,0,0,88,41.54v1.28a1.69,1.69,0,0,0,.6,1.38,2.14,2.14,0,0,0,1.33.39,2,2,0,0,0,1.27-.44,1.62,1.62,0,0,0,.58-1.33,2.09,2.09,0,0,1,.08-.76,1.81,1.81,0,0,1,.85-.65,24.92,24.92,0,0,0,2.87-1.82A4.81,4.81,0,0,0,96.84,36Z"/><path class="cls-2" d="M79.06,56.18l-1,1c-2.51,2.4-6.94,4.43-9.67,4.43V65.4c3.77,0,8.33-2.21,11.25-4.56a23.41,23.41,0,1,0-9.56-8.73l3.25-2a19.55,19.55,0,1,1,7,6.78Z"/></g></g></svg>